Coordinates
version=1
nRows=17
nColumns=40
inDegrees=yes

Units are S.I. units (second, meters, Newtons, ...)
Angles are in degrees.

endheader
time	pelvis_tilt	pelvis_list	pelvis_rotation	pelvis_tx	pelvis_ty	pelvis_tz	hip_flexion_r	hip_adduction_r	hip_rotation_r	knee_angle_r	knee_angle_r_beta	ankle_angle_r	subtalar_angle_r	mtp_angle_r	hip_flexion_l	hip_adduction_l	hip_rotation_l	knee_angle_l	knee_angle_l_beta	ankle_angle_l	subtalar_angle_l	mtp_angle_l	lumbar_extension	lumbar_bending	lumbar_rotation	arm_flex_r	arm_add_r	arm_rot_r	elbow_flex_r	pro_sup_r	wrist_flex_r	wrist_dev_r	arm_flex_l	arm_add_l	arm_rot_l	elbow_flex_l	pro_sup_l	wrist_flex_l	wrist_dev_l
     32.85828571	     -5.88218363	     -4.42665898	     -2.56906598	      0.91974456	      0.93072852	      0.43643183	     34.80253107	     -5.99551429	     -8.42136466	     57.48243340	     57.48243340	      2.09298386	    -18.51152641	      7.92901831	     11.08135693	     -4.49576490	     -5.46851242	     19.90007452	     19.90007452	     16.29300128	    -11.23149817	      2.62992756	    -10.65293956	      7.19898657	      1.80018925	      1.02434562	    -12.27097889	     -9.17381662	     24.57960111	     46.97213077	      0.00000000	      0.00000000	      5.40097168	    -15.36092818	    -11.80749037	     69.95233882	     47.32191013	      0.00000000	      0.00000000
     32.87157143	     -6.01188035	     -4.60021391	     -2.98885803	      0.91854610	      0.93082089	      0.43776421	     35.30052683	     -5.22016621	     -8.33900023	     54.18516338	     54.18516338	      2.44445255	    -18.05580182	      7.33601072	     10.52128361	     -4.77419551	     -5.80070205	     19.45379546	     19.45379546	     16.43352121	    -11.11110053	      2.58362353	    -10.78184885	      7.38122919	      1.85278475	     -0.37947913	    -12.43499815	     -9.32938025	     23.56927079	     47.01551908	      0.00000000	      0.00000000	      6.18706050	    -15.73232679	    -12.23736772	     71.46929379	     47.38743784	      0.00000000	      0.00000000
     32.88485714	     -6.14533636	     -4.65750086	     -3.40830156	      0.91747286	      0.93063440	      0.43921577	     35.60138993	     -4.60526496	     -8.32069534	     50.50947077	     50.50947077	      2.25588417	    -17.41178376	      5.31115006	      9.96262440	     -4.94507913	     -6.25295913	     19.02542937	     19.02542937	     16.61660949	    -10.85994196	      2.32550924	    -10.89745340	      7.33571290	      1.83846358	     -1.62837637	    -12.50513920	     -9.71044396	     22.36750664	     47.09113229	      0.00000000	      0.00000000	      6.66307768	    -16.11695923	    -12.84308898	     73.89382815	     47.48794015	      0.00000000	      0.00000000
     32.89814286	     -6.31040331	     -4.81313604	     -3.70704943	      0.91652312	      0.93030112	      0.44071519	     35.73083070	     -3.92799747	     -8.44492586	     46.60790035	     46.60790035	      2.66702207	    -16.24209641	      4.97429956	      9.49854650	     -5.19369135	     -6.48099385	     18.69237100	     18.69237100	     16.79235109	    -10.86896312	      2.25599910	    -10.84107800	      7.51742644	      1.52688888	     -2.85329227	    -12.65049479	     -9.83627973	     21.83343450	     47.11461338	      0.00000000	      0.00000000	      7.35170780	    -16.60203640	    -13.20903454	     74.86964383	     47.53645880	      0.00000000	      0.00000000
     32.91142857	     -6.33478257	     -4.95654190	     -4.00772297	      0.91582023	      0.93004626	      0.44224269	     35.46324963	     -3.31773623	     -8.68757949	     42.39458034	     42.39458034	      2.79067434	    -14.58539618	      4.25289246	      8.80729146	     -5.41500253	     -6.71267646	     18.27876918	     18.27876918	     17.07262048	    -10.75122676	      2.08046478	    -10.94598766	      7.65014469	      1.52964493	     -4.20066588	    -12.80480523	    -10.02190370	     21.28236640	     47.14396525	      0.00000000	      0.00000000	      8.09354138	    -16.78474401	    -13.60374605	     76.55014548	     47.60392896	      0.00000000	      0.00000000
     32.92471429	     -6.46588370	     -4.91641933	     -4.24842981	      0.91523671	      0.92932112	      0.44384174	     35.17646227	     -2.90178720	     -8.96063311	     38.12783459	     38.12783459	      3.05303959	    -12.81110235	      3.48533704	      8.32135551	     -5.46041196	     -7.02141200	     17.99811381	     17.99811381	     17.24948809	    -10.62692869	      1.85312130	    -10.91499814	      7.55931324	      1.36897608	     -5.43061281	    -12.87203646	    -10.24378488	     21.01309694	     47.16441434	      0.00000000	      0.00000000	      8.72561114	    -17.16224821	    -13.99795696	     78.11276069	     47.66940816	      0.00000000	      0.00000000
     32.93800000	     -6.54671734	     -4.93806031	     -4.42055586	      0.91485492	      0.92858399	      0.44549543	     34.61402978	     -2.47559483	     -9.45970760	     33.73359123	     33.73359123	      3.12374924	    -10.71625125	      3.06000948	      7.76636896	     -5.56317209	     -7.23148481	     17.71228527	     17.71228527	     17.49218714	    -10.49805562	      1.58497831	    -10.88964568	      7.54204660	      1.17568210	     -6.64931994	    -12.97185790	    -10.47103332	     20.88765290	     47.17831098	      0.00000000	      0.00000000	      9.30299557	    -17.43584280	    -14.30527167	     79.57701867	     47.72654683	      0.00000000	      0.00000000
     32.95128571	     -6.62660949	     -4.88587179	     -4.55196860	      0.91472317	      0.92762122	      0.44724930	     33.94031928	     -2.11263126	     -9.99647719	     29.47014110	     29.47014110	      3.22169554	     -8.53049468	      2.95805970	      7.22154071	     -5.58854313	     -7.42188849	     17.46368589	     17.46368589	     17.75443114	    -10.36745219	      1.28649429	    -10.78631589	      7.44275389	      0.94870359	     -7.82501967	    -13.03874043	    -10.69168706	     20.87318422	     47.18604990	      0.00000000	      0.00000000	      9.89367196	    -17.69880184	    -14.54597770	     80.90385260	     47.77643752	      0.00000000	      0.00000000
     32.96457143	     -6.68547119	     -4.85803472	     -4.64984736	      0.91485043	      0.92655182	      0.44915035	     33.12856846	     -1.73682947	    -10.69553921	     25.42175491	     25.42175491	      3.29422529	     -6.25249417	      3.16216061	      6.63169751	     -5.64535017	     -7.60293048	     17.19510806	     17.19510806	     18.01133756	    -10.21410210	      0.97848252	    -10.68721309	      7.36314699	      0.77753074	     -8.91523490	    -13.06057346	    -10.91067604	     20.96757044	     47.18867523	      0.00000000	      0.00000000	     10.45517493	    -17.88529903	    -14.70262982	     82.16066109	     47.81915327	      0.00000000	      0.00000000
     32.97785714	     -6.68902877	     -4.76820076	     -4.71209330	      0.91524121	      0.92534929	      0.45112041	     32.27391741	     -1.44626344	    -11.45854485	     21.86079683	     21.86079683	      3.36072294	     -4.00946137	      3.59791862	      5.98129960	     -5.63633932	     -7.78465248	     16.94679431	     16.94679431	     18.30381353	    -10.03210441	      0.62719219	    -10.59511495	      7.21977576	      0.62624776	     -9.95601608	    -13.08125624	    -11.14531904	     21.15812764	     47.18815972	      0.00000000	      0.00000000	     10.98736515	    -18.02798643	    -14.78458530	     83.33911595	     47.85561877	      0.00000000	      0.00000000
     32.99114286	     -6.63185003	     -4.69604698	     -4.75554535	      0.91592763	      0.92410317	      0.45320397	     31.40033629	     -1.17575892	    -12.33032948	     18.91901758	     18.91901758	      3.49719505	     -1.75725746	      4.18861074	      5.22951054	     -5.64961428	     -7.95438322	     16.67530016	     16.67530016	     18.61336529	     -9.78079781	      0.22384134	    -10.53731900	      7.11879230	      0.51670465	    -10.95559605	    -13.10091706	    -11.43434183	     21.51524182	     47.18425297	      0.00000000	      0.00000000	     11.45934425	    -18.09002490	    -14.76260055	     84.49112148	     47.88598546	      0.00000000	      0.00000000
     33.00442857	     -6.69027165	     -4.55061868	     -4.81241283	      0.91674204	      0.92257059	      0.45550529	     30.78717333	     -0.94925687	    -12.97773863	     16.69354389	     16.69354389	      3.54079320	     -0.12705472	      4.78305468	      4.61963983	     -5.60355315	     -8.13716823	     16.44023963	     16.44023963	     18.93183399	     -9.60597393	     -0.08692396	    -10.26441293	      6.92722596	      0.42027202	    -11.69658403	    -13.00923874	    -11.63835303	     21.78073749	     47.17942645	      0.00000000	      0.00000000	     11.92311003	    -18.16619947	    -14.71392399	     85.31026702	     47.90545654	      0.00000000	      0.00000000
     33.01771429	     -6.63602415	     -4.53374343	     -4.84377508	      0.91787640	      0.92122982	      0.45794793	     30.06580384	     -0.66107119	    -13.79697842	     15.06525227	     15.06525227	      3.61079113	      1.45615673	      5.28422476	      3.82644512	     -5.69763090	     -8.30283013	     16.14646653	     16.14646653	     19.26543283	     -9.35950991	     -0.37089048	    -10.12569422	      6.88340266	      0.42573348	    -12.35987417	    -12.98741941	    -11.88508816	     22.11421136	     47.17579246	      0.00000000	      0.00000000	     12.27607574	    -18.08263680	    -14.54298944	     86.10763479	     47.91816379	      0.00000000	      0.00000000
     33.03100000	     -6.64380674	     -4.45080280	     -4.87102238	      0.91908594	      0.91972523	      0.46045515	     29.59071013	     -0.47603014	    -14.34816609	     14.18625414	     14.18625414	      3.55715063	      2.52305780	      5.50572381	      3.12435513	     -5.72933326	     -8.41154321	     15.89889907	     15.89889907	     19.63564249	     -9.10915483	     -0.58936809	     -9.87880907	      6.81521498	      0.38299281	    -12.86798619	    -12.93305476	    -12.09434084	     22.38013800	     47.17366232	      0.00000000	      0.00000000	     12.60338856	    -18.00957490	    -14.36470244	     86.69351758	     47.92559388	      0.00000000	      0.00000000
     33.04428571	     -6.57190989	     -4.46887451	     -4.94346849	      0.92057268	      0.91837780	      0.46322227	     29.09079636	     -0.22881672	    -14.90570147	     13.85911920	     13.85911920	      3.43475218	      3.46283397	      5.26123602	      2.30139397	     -5.88892336	     -8.61903484	     15.65967483	     15.65967483	     20.03254297	     -8.81703452	     -0.72718948	     -9.73585121	      6.84765015	      0.50873730	    -13.22681761	    -12.87395996	    -12.39989653	     22.82516439	     47.17138834	      0.00000000	      0.00000000	     12.76914963	    -17.79705929	    -14.02614034	     87.23309499	     47.92444503	      0.00000000	      0.00000000
     33.05757143	     -6.68032671	     -4.41048522	     -4.99969464	      0.92198774	      0.91681951	      0.46609765	     28.90555130	     -0.03396000	    -14.92133738	     13.99526991	     13.99526991	      3.25839559	      3.52113130	      5.24835492	      1.83418913	     -5.98724117	     -8.61669730	     15.68748724	     15.68748724	     20.37431532	     -8.90138690	     -0.83107882	     -9.31984302	      6.79949724	      0.42335448	    -13.19366468	    -12.82411971	    -12.41551264	     22.87357142	     47.17036392	      0.00000000	      0.00000000	     12.82911717	    -17.70038624	    -13.95975394	     87.28851742	     47.92211911	      0.00000000	      0.00000000
     33.07085714	     -6.50750690	     -4.40268712	     -5.05191538	      0.92387907	      0.91558271	      0.46908475	     28.33080944	      0.17686619	    -15.00181254	     14.12527033	     14.12527033	      1.44361666	      3.30997590	     -0.01067696	      1.02978826	     -6.17691294	     -8.92224587	     15.79192395	     15.79192395	     21.18418290	     -8.23911528	     -0.07486996	     -9.27900339	      6.85836951	      0.87096962	    -13.55391454	    -12.53386103	    -13.88164592	     24.03357640	     47.20233269	      0.00000000	      0.00000000	     13.05899862	    -17.35012026	    -12.99256417	     87.44517830	     47.92778803	      0.00000000	      0.00000000
